<?xml version="1.0" encoding="iso-8859-1"?>
<!-- Generator: Adobe Illustrator 19.0.0, SVG Export Plug-In . SVG Version: 6.00 Build 0)  -->
<svg version="1.1" id="Capa_1" xmlns="http://www.w3.org/2000/svg" xmlns:xlink="http://www.w3.org/1999/xlink" x="0px" y="0px"
	 viewBox="0 0 390.144 390.144" style="enable-background:new 0 0 390.144 390.144;" xml:space="preserve">
<g>
	<g>
		<path d="M204.288,101.376V67.584c7.168,2.048,12.288,8.704,12.288,16.384c0,3.072,2.048,5.12,5.12,5.12
			c3.072,0,5.12-2.048,5.12-5.12c0-13.312-9.728-24.576-22.528-27.136v-5.12c0-3.072-2.048-5.12-5.12-5.12
			c-3.072,0-5.12,2.048-5.12,5.12v5.12c-12.8,2.56-22.528,13.312-22.528,27.136c0,13.824,9.728,25.088,22.528,27.136v33.792
			c-6.656-2.56-11.264-8.704-11.264-15.872c0-3.072-2.048-5.12-5.12-5.12c-3.072,0-5.12,2.048-5.12,5.12
			c0,12.8,9.216,24.064,21.504,26.624v5.12c0,3.072,2.048,5.12,5.12,5.12c3.072,0,5.12-2.048,5.12-5.12v-5.12
			c13.312-2.048,23.04-13.312,23.04-27.136C227.328,114.688,217.088,103.424,204.288,101.376z M194.048,100.864
			c-7.168-2.048-12.288-8.704-12.288-16.384s5.12-14.336,12.288-16.384V100.864z M204.288,144.896v-32.768
			c7.168,2.048,12.8,8.704,12.8,16.384C217.088,136.704,211.456,143.36,204.288,144.896z"/>
	</g>
</g>
<g>
	<g>
		<path d="M343.04,0H47.104c-3.072,0-5.12,2.048-5.12,5.12v379.904c0,3.072,2.048,5.12,5.12,5.12H343.04
			c3.072,0,5.12-2.048,5.12-5.12V5.12C348.16,2.56,345.6,0,343.04,0z M337.92,380.416H52.224V10.24H337.92V380.416z"/>
	</g>
</g>
<g>
	<g>
		<path d="M292.352,195.584H98.304c-3.072,0-5.12,2.048-5.12,5.12s2.048,5.12,5.12,5.12h194.048c3.072,0,5.12-2.048,5.12-5.12
			S295.424,195.584,292.352,195.584z"/>
	</g>
</g>
<g>
	<g>
		<path d="M292.352,236.544H98.304c-3.072,0-5.12,2.048-5.12,5.12c0,3.072,2.048,5.12,5.12,5.12h194.048
			c3.072,0,5.12-2.048,5.12-5.12C297.472,238.592,295.424,236.544,292.352,236.544z"/>
	</g>
</g>
<g>
	<g>
		<path d="M292.352,277.504H98.304c-3.072,0-5.12,2.048-5.12,5.12c0,3.072,2.048,5.12,5.12,5.12h194.048
			c3.072,0,5.12-2.048,5.12-5.12C297.472,279.552,295.424,277.504,292.352,277.504z"/>
	</g>
</g>
<g>
	<g>
		<path d="M292.352,318.464H98.304c-3.072,0-5.12,2.048-5.12,5.12c0,3.072,2.048,5.12,5.12,5.12h194.048
			c3.072,0,5.12-2.048,5.12-5.12C297.472,320.512,295.424,318.464,292.352,318.464z"/>
	</g>
</g>
<g>
</g>
<g>
</g>
<g>
</g>
<g>
</g>
<g>
</g>
<g>
</g>
<g>
</g>
<g>
</g>
<g>
</g>
<g>
</g>
<g>
</g>
<g>
</g>
<g>
</g>
<g>
</g>
<g>
</g>
</svg>
