<?xml version="1.0" encoding="utf-8"?>
<!-- Generator: Adobe Illustrator 16.0.0, SVG Export Plug-In . SVG Version: 6.00 Build 0)  -->
<!DOCTYPE svg PUBLIC "-//W3C//DTD SVG 1.1//EN" "http://www.w3.org/Graphics/SVG/1.1/DTD/svg11.dtd">
<svg version="1.1" id="Layer_1" xmlns="http://www.w3.org/2000/svg" xmlns:xlink="http://www.w3.org/1999/xlink" x="0px" y="0px"
	 width="32px" height="32px" viewBox="0 0 32 32" enable-background="new 0 0 32 32" xml:space="preserve">
<g id="Layer_1_1_">
	<g>
		<path fill="#808184" stroke="#666666" stroke-width="0.85" stroke-miterlimit="10" d="M16,0.313C7.557,0.313,0.688,7.35,0.688,16
			c0,8.65,6.87,15.688,15.313,15.688c8.442,0,15.313-7.037,15.313-15.688C31.313,7.35,24.443,0.313,16,0.313z M16,30.707
			C8.084,30.707,1.645,24.109,1.645,16C1.645,7.891,8.084,1.293,16,1.293S30.355,7.891,30.355,16
			C30.355,24.109,23.916,30.707,16,30.707z"/>
	</g>
</g>
<g id="Layer_2">
	<path fill="#808184" d="M24.072,16.001c0,0.515-0.424,0.929-0.947,0.929H8.875c-0.523,0-0.947-0.414-0.947-0.929l0,0
		c0-0.514,0.424-0.931,0.947-0.931h14.25C23.648,15.07,24.072,15.487,24.072,16.001L24.072,16.001z"/>
</g>
</svg>
