<?xml version="1.0" encoding="utf-8"?>
<!-- Generator: Adobe Illustrator 16.0.0, SVG Export Plug-In . SVG Version: 6.00 Build 0)  -->
<!DOCTYPE svg PUBLIC "-//W3C//DTD SVG 1.1//EN" "http://www.w3.org/Graphics/SVG/1.1/DTD/svg11.dtd">
<svg version="1.1" id="Layer_1" xmlns="http://www.w3.org/2000/svg" xmlns:xlink="http://www.w3.org/1999/xlink" x="0px" y="0px"
	 width="32px" height="32px" viewBox="0 0 32 32" enable-background="new 0 0 32 32" xml:space="preserve">
<g>
	<path fill="#666666" stroke="#666666" stroke-width="0.85" stroke-miterlimit="10" d="M16,0.313C7.557,0.313,0.688,7.35,0.688,16
		c0,8.65,6.87,15.688,15.313,15.688c8.442,0,15.313-7.037,15.313-15.688C31.313,7.35,24.443,0.313,16,0.313z M16,30.707
		C8.084,30.707,1.645,24.109,1.645,16C1.645,7.891,8.084,1.293,16,1.293S30.355,7.891,30.355,16
		C30.355,24.109,23.916,30.707,16,30.707z"/>
	<path fill="#666666" stroke="#666666" stroke-width="0.85" stroke-miterlimit="10" d="M23.178,16h-6.221V8.646
		c0-0.271-0.215-0.49-0.479-0.49s-0.479,0.22-0.479,0.49V16H8.822c-0.264,0-0.479,0.22-0.479,0.49c0,0.27,0.214,0.49,0.479,0.49H16
		v6.373c0,0.27,0.214,0.488,0.479,0.488c0.264,0,0.479-0.221,0.479-0.488V16.98h6.222c0.264,0,0.479-0.223,0.479-0.49
		C23.656,16.22,23.441,16,23.178,16z"/>
</g>
</svg>
